<svg id="svg" version="1.1" xmlns="http://www.w3.org/2000/svg" xmlns:xlink="http://www.w3.org/1999/xlink" width="400" height="327.98053527980534" viewBox="0, 0, 400,327.98053527980534"><g id="svgg"><path id="path0" d="M99.426 34.112 C 90.649 35.383,84.833 40.433,82.498 48.810 C 82.296 49.533,83.810 50.191,86.981 50.759 C 91.696 51.603,91.950 51.576,92.356 50.171 C 94.464 42.897,104.300 40.854,107.992 46.924 C 110.116 50.416,109.255 53.886,104.540 60.841 C 100.317 67.069,99.334 71.038,100.933 75.405 C 101.964 78.221,102.151 78.302,105.713 77.464 C 111.365 76.135,111.189 76.340,110.238 72.187 C 109.647 69.609,110.003 68.369,112.317 64.935 C 118.345 55.986,118.511 55.678,119.128 52.226 C 120.135 46.588,118.161 40.906,114.071 37.670 C 112.504 36.430,111.877 36.090,108.497 34.645 C 107.021 34.014,102.100 33.725,99.426 34.112 M185.070 49.535 C 171.185 52.535,158.967 62.403,153.697 74.875 C 153.062 76.376,152.411 77.900,152.249 78.261 C 150.695 81.729,150.192 86.828,149.987 101.231 L 149.795 114.684 133.508 114.769 C 114.530 114.868,116.542 114.300,116.131 119.677 C 115.405 129.198,114.797 136.359,114.354 140.607 C 114.091 143.134,113.648 148.376,113.370 152.256 C 112.671 161.992,111.959 170.602,111.403 176.046 C 110.875 181.225,110.367 187.391,109.931 193.929 C 109.433 201.387,108.950 207.094,108.586 209.801 C 108.396 211.221,108.110 214.322,107.952 216.692 C 107.174 228.335,106.071 241.911,105.636 245.197 C 105.451 246.593,105.159 249.694,104.987 252.088 C 103.649 270.688,102.886 279.973,102.554 281.706 C 102.450 282.248,102.219 284.832,102.039 287.449 C 101.428 296.349,100.747 305.323,100.419 308.778 C 100.240 310.673,100.174 312.482,100.274 312.797 C 100.547 313.666,297.517 313.695,297.851 312.827 C 297.966 312.527,297.875 309.685,297.648 306.510 C 297.422 303.336,297.110 298.972,296.954 296.814 C 296.799 294.656,296.515 291.629,296.323 290.087 C 295.927 286.900,295.470 281.546,294.822 272.518 C 293.796 258.204,293.652 256.417,293.483 255.947 C 293.276 255.371,292.071 240.597,291.074 226.415 C 290.915 224.159,290.629 220.984,290.438 219.360 C 289.961 215.307,289.045 204.085,288.107 190.812 C 287.954 188.646,287.673 185.546,287.483 183.921 C 287.093 180.587,286.396 172.209,285.641 161.772 C 285.361 157.892,284.919 152.650,284.660 150.123 C 284.401 147.596,283.963 142.650,283.687 139.130 C 282.655 125.990,282.214 120.200,282.079 118.017 C 281.879 114.772,283.302 115.034,264.873 114.848 L 248.564 114.684 248.378 98.605 C 248.172 80.801,248.265 81.620,245.812 75.885 C 240.885 64.362,229.865 54.151,219.032 51.072 C 217.949 50.764,216.546 50.346,215.915 50.144 C 212.117 48.925,189.919 48.488,185.070 49.535 M213.341 57.109 C 215.401 57.496,217.503 58.172,219.349 59.041 C 220.910 59.776,222.261 60.377,222.350 60.377 C 223.969 60.377,232.322 67.767,235.069 71.629 C 241.023 80.002,242.133 85.478,241.633 104.020 L 241.345 114.684 199.180 114.684 L 157.014 114.684 157.123 104.348 C 157.240 93.382,157.603 86.115,158.117 84.495 C 158.289 83.954,158.770 82.404,159.187 81.050 C 162.620 69.888,173.392 59.843,184.742 57.222 C 189.897 56.031,207.244 55.962,213.341 57.109 M108.683 83.700 C 106.023 84.510,103.948 88.191,104.660 90.836 C 106.564 97.907,116.817 96.914,116.817 89.659 C 116.817 85.052,113.126 82.348,108.683 83.700 M274.651 122.559 C 274.890 122.847,275.177 124.786,275.342 127.235 C 275.497 129.536,275.707 131.765,275.808 132.187 C 275.909 132.610,276.127 134.899,276.292 137.274 C 276.457 139.648,276.746 143.363,276.935 145.529 C 277.254 149.198,277.542 152.858,278.272 162.542 C 278.433 164.681,278.715 167.560,278.898 168.941 C 279.082 170.322,279.463 174.774,279.745 178.835 C 280.027 182.896,280.406 187.916,280.587 189.992 C 280.768 192.067,281.043 195.537,281.197 197.703 C 281.351 199.869,281.635 202.822,281.827 204.266 C 282.019 205.710,282.410 210.213,282.695 214.274 C 282.980 218.335,283.368 223.429,283.558 225.595 C 283.747 227.760,284.020 231.157,284.164 233.142 C 284.308 235.127,284.586 238.080,284.781 239.705 C 284.976 241.329,285.364 245.906,285.643 249.877 C 286.392 260.518,287.107 269.196,287.496 272.354 C 287.685 273.888,287.964 276.989,288.117 279.245 C 288.555 285.716,289.052 292.045,289.627 298.496 C 289.919 301.775,290.063 304.839,289.946 305.305 L 289.733 306.153 199.214 306.153 C 117.419 306.153,108.653 306.103,108.267 305.638 C 107.918 305.217,107.916 304.457,108.258 301.454 C 108.487 299.436,108.797 296.163,108.947 294.181 C 109.096 292.199,109.378 288.877,109.574 286.798 C 109.980 282.502,110.495 275.818,110.902 269.565 C 111.055 267.219,111.337 263.970,111.530 262.346 C 111.981 258.533,112.813 249.071,113.029 245.283 C 113.251 241.396,113.770 234.968,114.353 228.876 C 115.166 220.390,115.801 212.732,116.327 205.086 C 116.606 201.025,116.992 196.448,117.185 194.914 C 117.377 193.380,117.655 190.427,117.802 188.351 C 117.949 186.276,118.225 182.806,118.416 180.640 C 118.608 178.474,118.994 173.527,119.275 169.647 C 119.557 165.767,119.998 160.451,120.256 157.834 C 121.115 149.126,121.420 145.573,121.747 140.443 C 121.926 137.646,122.146 134.766,122.238 134.044 C 122.329 133.322,122.546 130.607,122.719 128.010 C 122.962 124.365,123.160 123.148,123.586 122.677 C 124.357 121.825,273.944 121.708,274.651 122.559 M316.470 154.912 C 316.347 155.110,316.929 155.964,317.763 156.811 C 319.611 158.687,319.628 159.000,317.966 160.623 C 315.548 162.984,316.372 163.510,318.989 161.276 L 320.723 159.797 322.064 161.112 C 322.801 161.836,323.584 162.428,323.802 162.428 C 324.548 162.428,324.203 161.478,323.052 160.360 C 321.602 158.952,321.614 158.714,323.216 156.976 C 325.406 154.600,324.764 154.040,322.318 156.194 C 320.493 157.800,320.745 157.811,318.657 156.030 C 316.735 154.388,316.779 154.411,316.470 154.912 M154.001 165.572 C 149.197 167.897,148.193 175.149,152.155 178.910 C 157.229 183.728,166.038 179.800,166.038 172.721 C 166.038 166.789,159.505 162.909,154.001 165.572 M236.779 165.536 C 230.483 168.620,230.927 178.023,237.485 180.477 C 244.097 182.951,250.007 177.126,248.088 170.028 C 246.911 165.677,241.157 163.392,236.779 165.536 M72.184 182.756 C 64.934 186.591,67.490 197.539,75.636 197.539 C 82.451 197.539,85.919 189.944,81.475 184.752 C 79.318 182.233,74.949 181.294,72.184 182.756 M77.700 184.712 C 83.138 187.509,81.606 195.244,75.614 195.241 C 71.369 195.240,68.268 189.694,70.908 186.825 C 73.362 184.156,75.392 183.524,77.700 184.712 M193.109 195.420 C 185.761 197.425,180.650 204.056,179.966 212.469 C 179.730 215.386,180.255 216.608,181.924 217.027 C 184.047 217.559,185.521 215.789,185.844 212.322 C 186.450 205.803,190.912 201.309,197.375 200.710 C 205.775 199.931,211.113 204.189,212.547 212.814 C 213.037 215.760,213.122 215.960,214.160 216.602 C 220.246 220.363,219.387 206.711,213.128 200.195 C 208.709 195.594,200.045 193.528,193.109 195.420 M311.198 214.903 C 304.829 217.795,307.000 227.149,314.033 227.115 C 319.928 227.087,322.699 219.848,318.294 215.982 C 316.404 214.324,313.459 213.876,311.198 214.903 M315.994 217.061 C 318.221 218.467,318.857 220.617,317.689 222.794 C 316.332 225.325,313.082 225.721,310.803 223.632 C 307.226 220.354,311.879 214.464,315.994 217.061 M81.859 247.762 C 81.742 247.952,81.573 249.022,81.484 250.141 C 81.281 252.686,81.020 252.994,79.068 252.994 C 77.349 252.994,76.456 253.231,76.456 253.686 C 76.456 253.847,77.379 253.981,78.507 253.984 C 81.162 253.990,81.253 254.073,81.455 256.652 C 81.745 260.362,82.691 260.612,82.691 256.978 C 82.691 254.203,82.917 253.979,85.710 253.979 C 86.937 253.979,87.941 253.847,87.941 253.686 C 87.941 253.235,87.055 252.995,85.371 252.989 C 83.094 252.982,82.888 252.739,82.744 249.893 C 82.627 247.574,82.365 246.943,81.859 247.762 " stroke="none" fill="#a2a2a2" fill-rule="evenodd"></path><path id="path1" d="M0.000 164.069 L 0.000 328.138 200.000 328.138 L 400.000 328.138 400.000 164.069 L 400.000 0.000 200.000 0.000 L 0.000 0.000 0.000 164.069 M108.497 34.645 C 111.877 36.090,112.504 36.430,114.071 37.670 C 118.161 40.906,120.135 46.588,119.128 52.226 C 118.511 55.678,118.345 55.986,112.317 64.935 C 110.003 68.369,109.647 69.609,110.238 72.187 C 111.189 76.340,111.365 76.135,105.713 77.464 C 102.151 78.302,101.964 78.221,100.933 75.405 C 99.334 71.038,100.317 67.069,104.540 60.841 C 109.255 53.886,110.116 50.416,107.992 46.924 C 104.300 40.854,94.464 42.897,92.356 50.171 C 91.950 51.576,91.696 51.603,86.981 50.759 C 83.810 50.191,82.296 49.533,82.498 48.810 C 84.587 41.315,88.357 37.453,96.098 34.880 C 99.573 33.724,106.057 33.602,108.497 34.645 M212.633 49.468 C 213.807 49.637,215.283 49.941,215.915 50.144 C 216.546 50.346,217.949 50.764,219.032 51.072 C 229.865 54.151,240.885 64.362,245.812 75.885 C 248.265 81.620,248.172 80.801,248.378 98.605 L 248.564 114.684 264.873 114.848 C 283.302 115.034,281.879 114.772,282.079 118.017 C 282.214 120.200,282.655 125.990,283.687 139.130 C 283.963 142.650,284.401 147.596,284.660 150.123 C 284.919 152.650,285.361 157.892,285.641 161.772 C 286.396 172.209,287.093 180.587,287.483 183.921 C 287.673 185.546,287.954 188.646,288.107 190.812 C 289.045 204.085,289.961 215.307,290.438 219.360 C 290.629 220.984,290.915 224.159,291.074 226.415 C 292.071 240.597,293.276 255.371,293.483 255.947 C 293.652 256.417,293.796 258.204,294.822 272.518 C 295.470 281.546,295.927 286.900,296.323 290.087 C 296.515 291.629,296.799 294.656,296.954 296.814 C 297.110 298.972,297.422 303.336,297.648 306.510 C 297.875 309.685,297.966 312.527,297.851 312.827 C 297.517 313.695,100.547 313.666,100.274 312.797 C 100.174 312.482,100.240 310.673,100.419 308.778 C 100.747 305.323,101.428 296.349,102.039 287.449 C 102.219 284.832,102.450 282.248,102.554 281.706 C 102.886 279.973,103.649 270.688,104.987 252.088 C 105.159 249.694,105.451 246.593,105.636 245.197 C 106.071 241.911,107.174 228.335,107.952 216.692 C 108.110 214.322,108.396 211.221,108.586 209.801 C 108.950 207.094,109.433 201.387,109.931 193.929 C 110.367 187.391,110.875 181.225,111.403 176.046 C 111.959 170.602,112.671 161.992,113.370 152.256 C 113.648 148.376,114.091 143.134,114.354 140.607 C 114.797 136.359,115.405 129.198,116.131 119.677 C 116.542 114.300,114.530 114.868,133.508 114.769 L 149.795 114.684 149.987 101.231 C 150.192 86.828,150.695 81.729,152.249 78.261 C 152.411 77.900,153.062 76.376,153.697 74.875 C 158.967 62.403,171.185 52.535,185.070 49.535 C 188.150 48.870,208.141 48.821,212.633 49.468 M189.828 56.474 C 175.968 57.671,163.236 67.883,159.187 81.050 C 158.770 82.404,158.289 83.954,158.117 84.495 C 157.603 86.115,157.240 93.382,157.123 104.348 L 157.014 114.684 199.180 114.684 L 241.345 114.684 241.633 104.020 C 242.133 85.478,241.023 80.002,235.069 71.629 C 232.322 67.767,223.969 60.377,222.350 60.377 C 222.261 60.377,220.910 59.776,219.349 59.041 C 214.404 56.714,200.773 55.528,189.828 56.474 M114.317 84.351 C 116.064 85.548,116.817 87.146,116.817 89.659 C 116.817 96.914,106.564 97.907,104.660 90.836 C 103.299 85.780,109.917 81.336,114.317 84.351 M123.586 122.677 C 123.160 123.148,122.962 124.365,122.719 128.010 C 122.546 130.607,122.329 133.322,122.238 134.044 C 122.146 134.766,121.926 137.646,121.747 140.443 C 121.420 145.573,121.115 149.126,120.256 157.834 C 119.998 160.451,119.557 165.767,119.275 169.647 C 118.994 173.527,118.608 178.474,118.416 180.640 C 118.225 182.806,117.949 186.276,117.802 188.351 C 117.655 190.427,117.377 193.380,117.185 194.914 C 116.992 196.448,116.606 201.025,116.327 205.086 C 115.801 212.732,115.166 220.390,114.353 228.876 C 113.770 234.968,113.251 241.396,113.029 245.283 C 112.813 249.071,111.981 258.533,111.530 262.346 C 111.337 263.970,111.055 267.219,110.902 269.565 C 110.495 275.818,109.980 282.502,109.574 286.798 C 109.378 288.877,109.096 292.199,108.947 294.181 C 108.797 296.163,108.487 299.436,108.258 301.454 C 107.916 304.457,107.918 305.217,108.267 305.638 C 108.653 306.103,117.419 306.153,199.214 306.153 L 289.733 306.153 289.946 305.305 C 290.063 304.839,289.919 301.775,289.627 298.496 C 289.052 292.045,288.555 285.716,288.117 279.245 C 287.964 276.989,287.685 273.888,287.496 272.354 C 287.107 269.196,286.392 260.518,285.643 249.877 C 285.364 245.906,284.976 241.329,284.781 239.705 C 284.586 238.080,284.308 235.127,284.164 233.142 C 284.020 231.157,283.747 227.760,283.558 225.595 C 283.368 223.429,282.980 218.335,282.695 214.274 C 282.410 210.213,282.019 205.710,281.827 204.266 C 281.635 202.822,281.351 199.869,281.197 197.703 C 281.043 195.537,280.768 192.067,280.587 189.992 C 280.406 187.916,280.027 182.896,279.745 178.835 C 279.463 174.774,279.082 170.322,278.898 168.941 C 278.715 167.560,278.433 164.681,278.272 162.542 C 277.542 152.858,277.254 149.198,276.935 145.529 C 276.746 143.363,276.457 139.648,276.292 137.274 C 276.127 134.899,275.909 132.610,275.808 132.187 C 275.707 131.765,275.497 129.536,275.342 127.235 C 275.177 124.786,274.890 122.847,274.651 122.559 C 273.944 121.708,124.357 121.825,123.586 122.677 M318.657 156.030 C 320.745 157.811,320.493 157.800,322.318 156.194 C 324.764 154.040,325.406 154.600,323.216 156.976 C 321.614 158.714,321.602 158.952,323.052 160.360 C 324.203 161.478,324.548 162.428,323.802 162.428 C 323.584 162.428,322.801 161.836,322.064 161.112 L 320.723 159.797 318.989 161.276 C 316.372 163.510,315.548 162.984,317.966 160.623 C 319.628 159.000,319.611 158.687,317.763 156.811 C 316.929 155.964,316.347 155.110,316.470 154.912 C 316.779 154.411,316.735 154.388,318.657 156.030 M160.889 165.247 C 166.151 167.040,167.724 174.430,163.701 178.453 C 158.251 183.903,149.845 180.459,149.814 172.765 C 149.790 166.826,155.048 163.257,160.889 165.247 M243.564 165.242 C 248.073 166.778,250.071 173.832,247.068 177.612 C 241.933 184.078,232.519 181.052,232.495 172.929 C 232.476 166.733,237.566 163.198,243.564 165.242 M78.834 182.737 C 81.942 184.069,84.036 187.905,83.365 191.035 C 81.692 198.834,71.674 200.062,68.571 192.849 C 65.762 186.319,72.259 179.919,78.834 182.737 M72.978 185.025 C 70.539 186.817,70.120 187.485,70.091 189.632 C 70.019 194.922,77.108 197.292,80.230 193.022 C 83.512 188.533,77.392 181.783,72.978 185.025 M205.070 195.402 C 212.463 197.318,218.035 204.634,218.290 212.760 C 218.386 215.843,217.981 216.681,216.208 217.071 C 214.145 217.524,213.135 216.350,212.547 212.814 C 211.113 204.189,205.775 199.931,197.375 200.710 C 190.912 201.309,186.450 205.803,185.844 212.322 C 185.521 215.789,184.047 217.559,181.924 217.027 C 177.813 215.995,180.075 205.456,185.636 199.734 C 189.699 195.554,198.277 193.642,205.070 195.402 M316.489 214.919 C 322.912 218.008,321.085 227.081,314.033 227.115 C 311.422 227.127,309.909 226.343,308.532 224.261 C 304.993 218.914,310.747 212.159,316.489 214.919 M311.978 216.991 C 310.224 218.052,309.636 219.045,309.636 220.943 C 309.636 225.139,315.686 226.530,317.689 222.794 C 319.714 219.020,315.574 214.814,311.978 216.991 M82.744 249.893 C 82.888 252.739,83.094 252.982,85.371 252.989 C 87.055 252.995,87.941 253.235,87.941 253.686 C 87.941 253.847,86.937 253.979,85.710 253.979 C 82.917 253.979,82.691 254.203,82.691 256.978 C 82.691 260.612,81.745 260.362,81.455 256.652 C 81.253 254.073,81.162 253.990,78.507 253.984 C 77.379 253.981,76.456 253.847,76.456 253.686 C 76.456 253.231,77.349 252.994,79.068 252.994 C 81.020 252.994,81.281 252.686,81.484 250.141 C 81.773 246.511,82.565 246.355,82.744 249.893 " stroke="none" fill="#ffffff" fill-rule="evenodd"></path></g></svg>